<?xml version="1.0" encoding="UTF-8"?><svg id="Layer_2" xmlns="http://www.w3.org/2000/svg" viewBox="0 0 1727.57 516.67"><g id="Layer_1-2"><path d="m863.79,0c-204.1,0-417.46,17.8-610.7,75.69C155.35,104.97,0,161.65,0,258.33s155.35,153.36,253.09,182.64c193.24,57.89,406.6,75.69,610.7,75.69s417.45-17.8,610.7-75.69c96.39-28.88,253.09-86.12,253.09-182.64s-156.69-153.77-253.09-182.64C1281.24,17.8,1067.9,0,863.79,0Zm0,488.67c-184.35,0-377.32-15.71-552.28-67.46-86.84-25.69-228.76-75.92-228.76-162.87S224.67,121.14,311.5,95.46C486.46,43.71,679.44,27.99,863.79,27.99s377.32,15.71,552.29,67.46c85.94,25.42,228.76,76.43,228.76,162.87s-142.83,137.45-228.76,162.87c-174.97,51.75-367.93,67.46-552.29,67.46Z"/><path d="m534.5,191.74c3.7-.41,7.14-.19,10.57,0,6.93.38,10.57,3.66,8.46,9.36-1.06,2.85-3.17,5.7-5.29,8.14-28,37.19-55.85,74.49-83.54,111.91-8.49,12-23.58,16.27-37.54,16.28-74.93.04-154.64-4.13-225.24,0-12.94.76-22.15-5.09-12.69-17.09,11.83-15.01,23.5-31.56,35.43-47.21,8.51-10.87,22.55-15.86,35.95-15.46,34.64,1.03,70.89-.23,106.28,0,13.4.09,28.28-4.35,36.48-15.46,5.62-7.62,11.98-15.63,16.92-24.01,2.12-2.85,3.17-8.55,1.06-10.17-3.7-2.03-10.08-2.46-14.81-1.63-8.95,1.58-16.92,6.92-20.62,13.84-10.24,20.76-36.79,26.3-57.63,24.82-19.77-1.4-40.3-.28-60.28-.41-14.44-.09-18.01-4.63-11.63-13.84,6.26-9.03,12.93-17.98,20.09-26.45,7.67-9.09,19.65-12.82,31.2-12.62,37.91.69,76.49.13,114.74,0h112.09Zm-199.33,127.38c9.52-10.54,18.49-21.59,26.44-33.37,3.7-5.29-1.69-10.04-9.52-8.55-6.73,1.29-14.81,3.66-19.04,7.73-9.27,9.62-17.26,20.36-24.85,31.34-3.7,5.7,4.29,11.6,12.16,9.77,2.59-.6,11.1-2.85,14.81-6.92Z"/><path d="m487.97,337.84c-12.94-.18-16.39-4.07-10.05-13.43,1.06-2.03,2.64-4.07,4.23-5.7,52.19-69.71,104.43-139.38,156.51-209.18,10.55-15.01,28.87-21.3,46.53-20.75,21.47.66,43.36.42,65.03.41,3.7,0,6.9-.01,10.57.41,6.84.78,9.75,4.85,7.4,9.77-1.31,2.75-3.17,5.7-5.29,8.14-17.31,22.9-34.58,45.82-51.82,68.78-1.59,2.44-3.86,4.92-5.82,7.73-2.71,3.9,0,6.92,4.76,7.73,4.76.81,9.27.97,13.22.81,33.84-1.33,68.09-.17,102.05,0,3.15.02,7.01.14,10.05.41,7.99.7,11.1,3.66,8.46,9.77-1.59,2.85-3.17,5.7-5.29,8.14-27.37,36.19-54.56,72.5-81.43,109.06-9.71,13.14-25.99,19.1-41.77,18.31-21.98-1.09-46.35-1.27-67.68,0-12.81.76-23.27-4.26-13.22-16.69,24.27-32.46,48.59-64.88,72.97-97.26,2.64-2.85,4.55-6.22,5.82-8.95,2.42-5.23-1.31-8.77-8.99-8.95-8.21-.2-15.33,3.05-20.62,7.33-4.03,3.25-7.4,6.92-10.05,10.99-23.66,31.31-47.13,62.75-70.32,94.41-10.1,13.45-26.25,20.56-42.83,19.13-10.45-.9-21.57-.47-32.25-.41-13.34.08-26.8.19-40.18,0Z"/><path d="m1114.52,192.96c17.41-.27,27.03,3.31,13.75,19.53-4.23,6.51-8.99,12.62-13.75,18.72-8.18,10.79-20.62,15.09-33.84,15.06-25.48-.06-51.11-.07-76.67,0-13.7.03-16.92-4.48-10.57-14.24,2.64-4.88,6.87-9.36,9.52-13.84,4.23-7.73-.47-11.7-10.57-10.99-8.48.6-19.1,6.22-24.32,13.02-6.1,7.95-12.29,16.31-18.5,24.42-19.18,25.53-38.45,50.98-57.63,76.51-9.09,13.04-24.93,18.53-40.18,17.91-22.58-.92-47.46-1.53-69.26-.41-12.11.62-21.62-5.23-12.16-16.68,20.31-27.1,40.59-54.22,60.81-81.39,8.05-10.37,15.98-20.87,23.79-31.33,8.52-11.41,23.13-16.61,37.01-16.28,37.11.87,75.79.03,113.68,0,36.3-.03,73.19.56,108.92,0Z"/><path d="m1556.54,193.37c12.14-.27,25.14,3.68,12.69,16.69-28.71,38.27-57.48,76.49-86.18,114.76-8.37,12.3-23.23,17.34-37.54,17.09-23.26-.4-47.78-1.12-69.79,0-11.39.58-21.29-5.25-12.16-16.28,24.85-32.96,49.7-65.93,74.55-98.89,2.64-3.66,5.82-7.33,7.4-10.99,2.11-4.88-1.68-8.22-7.93-8.55-9.88-.52-17.98,3.66-23.79,9.36-3.17,2.85-5.82,6.1-7.93,9.36-23.02,30.99-46.06,61.96-68.74,93.19-9.69,13.55-26.19,19.79-42.3,19.13-22.2-.91-46.15-.75-68.21,0-11.54.39-20.38-4.61-11.63-15.87,20.09-27.14,40.19-54.26,60.28-81.39,5.29-6.92,10.57-13.43,14.8-20.75,2.12-2.85,2.41-8.15.53-9.77-2.13-1.83-8.99-2.44-13.22-1.63-10.05,2.03-16.92,7.73-22.21,14.65-17.73,23.93-35.34,47.95-52.87,72.03-6.96,9.03-14.27,18.15-20.62,27.27-7.69,11.05-21.72,16.04-34.9,15.87-23.77-.3-48.97-1.36-71.38,0-13.28.81-22.18-4.59-12.16-16.68,19.92-26.72,39.83-53.45,59.75-80.17,7.8-10.41,15.55-20.98,23.26-31.34,8.1-10.88,22.12-16.15,35.43-15.87,61.11,1.3,124.79-.16,187.17-.41,62.56-.25,126.35.56,187.7-.81Z"/></g></svg>