<?xml version="1.0" encoding="UTF-8"?><svg id="Layer_2" xmlns="http://www.w3.org/2000/svg" viewBox="0 0 459.79 185.05"><g id="Layer_1-2"><g><path d="m153.55.07h50.87c4.17,0,10.17-.42,12.22,2.96.77,1.27-3.75,2.75-6.57,3.59-2.4.84-5.6,1.06-8.94,1.06-10.57.42-16.38,3.17-19.07,7.6-1.64,2.75-3.28,5.49-3.95,8.45-1.24,3.38,2.42,5.28,10.83,6.12,1.79.21,3.74,0,5.24.42,2.46.63,5.47,1.48,5.99,2.32,1.06,1.06-.11,2.53-1.51,2.96-2.67,1.06-6.01,1.69-9.74,1.69-14.8.21-20.89,4.43-24.14,10.56-18.39,36.74-36.31,73.49-53.76,110.23-3,6.12-5.58,12.25-8.55,18.37-2.83,5.7-10.25,8.66-23.62,8.66-20.81-.21-40.93,0-61.6,0-2.43,0-4.86,0-7.43-.21-6.09-.63-9.64-2.32-9.82-5.07.23-2.11,1.01-4.01,1.93-5.7C27.11,119.59,53.31,65.11,80.68,10.84,84.24,3.24,92.27-.57,110.19.07c14.86.42,28.77,0,43.37,0Z"/><path d="m430.32,48.32c12.25,0,14.23,3.42,7.94,15.59-17.88,35.75-35.04,69.39-52.91,105.14-5.3,10.65-12.57,15.95-23.5,15.97-15.7.04-29.13,0-43.7,0-10.59-.38-12.91-4.56-7.61-15.21,15.56-30.81,30.07-59.5,45.63-90.31,1.66-3.42,3.64-6.85,4.63-10.27,1.32-4.56-.99-7.61-4.97-7.99-6.29-.38-11.26,3.42-14.9,8.75-1.99,2.66-3.64,5.7-4.97,8.75-14.24,28.91-29.94,59.13-43.84,88.41-5.96,12.17-13.9,17.9-26.48,17.88-25.81-.04-28.47,0-42.71,0-10.26,0-11.44-5.5-6.48-16.15,12.58-25.48,25.16-50.59,37.74-76.07,3.31-6.47,6.62-12.55,9.27-19.4,1.32-2.66,1.66-7.61.33-9.13-1.32-1.9-5.63-2.28-8.28-1.52-6.29,1.9-10.59,7.23-13.9,13.69-11.26,22.44-22.18,44.88-33.1,67.32-4.3,8.37-9.13,17.66-13.44,26.41-4.63,9.89-11.58,14.86-21.85,14.83q-25.21-.05-44.69,0c-11.92.03-13.05-4.35-7.09-16.52,12.58-25.1,24.83-49.83,37.41-74.93,4.97-9.89,9.6-19.4,14.57-29.29,4.63-9.89,11.92-14.83,22.18-14.83,39.06.38,78.13-.38,117.19-.38,39.06-.38,78.13-.38,117.52-.76Z"/><path d="m394.73,48.32c12.35-24.16-.86,1.78,11.49-22.38,3.66-7.2,8.69-11.05,16.24-10.79,10.06.51,20.12,0,30.19,0,7.32.26,8.92,3.08,5.26,10.28-10.75,20.82-21.5,41.63-32.24,62.45-1.14,2.31-3.4,4.53-4.08,6.84"/></g></g></svg>